<svg xmlns="http://www.w3.org/2000/svg" width="16.041" height="16"><path d="M16.021 14.16l-1.12-8a1.568 1.568 0 00-1.6-1.36h-1.28V4a3.866 3.866 0 00-4-4 3.961 3.961 0 00-4 4v.8h-1.04a1.9 1.9 0 00-1.84 1.36l-1.12 8a1.62 1.62 0 001.6 1.84h12.8a1.62 1.62 0 001.6-1.84zM5.621 4a2.357 2.357 0 012.4-2.4 2.225 2.225 0 012.4 2.4v.8h-4.8zm7.84 10.4H2.581a.778.778 0 01-.8-.88l.88-6.4a.851.851 0 01.8-.72h.56V8a.756.756 0 00.8.8.756.756 0 00.8-.8V6.4h4.8V8a.8.8 0 101.6 0V6.4h.56a.851.851 0 01.8.72l.88 6.4a.741.741 0 01-.8.88z" fill="#db9351"/></svg>